<?xml version="1.0" encoding="UTF-8" standalone="no"?>
<svg
   height="2500"
   width="2500"
   viewBox="0 0 512 512"
   version="1.1"
   id="svg12"
   sodipodi:docname="google-scholar.svg"
   inkscape:version="1.2.1 (9c6d41e410, 2022-07-14)"
   xmlns:inkscape="http://www.inkscape.org/namespaces/inkscape"
   xmlns:sodipodi="http://sodipodi.sourceforge.net/DTD/sodipodi-0.dtd"
   xmlns="http://www.w3.org/2000/svg"
   xmlns:svg="http://www.w3.org/2000/svg">
  <defs
     id="defs16" />
  <sodipodi:namedview
     id="namedview14"
     pagecolor="#ffffff"
     bordercolor="#000000"
     borderopacity="0.25"
     inkscape:showpageshadow="2"
     inkscape:pageopacity="0.0"
     inkscape:pagecheckerboard="0"
     inkscape:deskcolor="#d1d1d1"
     showgrid="false"
     inkscape:zoom="0.24324473"
     inkscape:cx="1305.2698"
     inkscape:cy="1401.8803"
     inkscape:window-width="1920"
     inkscape:window-height="1010"
     inkscape:window-x="1920"
     inkscape:window-y="38"
     inkscape:window-maximized="1"
     inkscape:current-layer="svg12" />
  <circle
     style="fill:#006064;stroke-width:0.182843;fill-opacity:1"
     id="path4689"
     cx="256"
     cy="256"
     r="256" />
  <g
     fill="none"
     fill-rule="evenodd"
     id="g10"
     style="opacity:0">
    <path
       d="M256 411.12L0 202.667 256 0z"
       fill="#4285f4"
       id="path2" />
    <path
       d="M256 411.12l256-208.453L256 0z"
       fill="#356ac3"
       id="path4" />
    <circle
       cx="256"
       cy="362.667"
       fill="#a0c3ff"
       r="149.333"
       id="circle6" />
    <path
       d="M121.037 298.667c23.968-50.453 75.392-85.334 134.963-85.334s110.995 34.881 134.963 85.334H121.037z"
       fill="#76a7fa"
       id="path8" />
  </g>
  <path
     fill="#ffffff"
     d="M 210.21549,83.084435 89.281209,189.32577 h 77.985661 c 5.65113,50.86021 46.3393,72.33452 88.15769,75.7252 -7.91158,20.34408 -4.5209,30.51612 7.91159,44.07885 -48.59975,1.13022 -116.41337,29.3859 -116.41337,75.7252 4.52091,50.86021 71.2043,61.03225 103.98088,61.03225 42.94862,1.13023 91.54838,-21.47431 101.72042,-61.03225 4.5209,-39.55794 -11.30227,-61.03225 -35.03704,-80.24611 -25.99522,-20.34409 -31.64635,-31.64635 -23.73476,-45.20908 16.9534,-19.21385 39.55794,-30.51612 44.07885,-57.64157 2.26045,-19.21386 -2.26046,-31.64635 -6.78136,-48.59976 l 50.86021,-42.94862 -1.13023,18.08363 c -3.39068,2.26046 -5.65113,6.78136 -5.65113,10.17205 v 116.41337 c 2.26045,14.69295 24.86499,12.43249 25.99521,0 V 138.46556 c 0,-3.39069 -2.26045,-7.91159 -5.65113,-9.04182 v -28.25568 l 18.08363,-18.083625 z m 65.55316,159.361995 c -68.94384,11.30227 -98.32974,-98.32974 -42.94862,-111.89246 63.2927,-12.4325 93.80883,97.19951 42.94862,111.89246 z m -5.65114,82.50656 c 67.81362,14.69295 68.94384,71.2043 11.30227,88.1577 -49.72998,10.17204 -92.6786,-4.52091 -91.54838,-33.90681 0,-28.25567 39.55795,-54.25089 80.24611,-54.25089 z"
     id="path2670"
     style="stroke-width:1.13023" />
</svg>
